<?xml version="1.0" encoding="UTF-8" standalone="no"?>
<!DOCTYPE svg PUBLIC "-//W3C//DTD SVG 1.1//EN" "http://www.w3.org/Graphics/SVG/1.1/DTD/svg11.dtd">
<svg width="100%" height="100%" viewBox="0 0 752 637" version="1.1" xmlns="http://www.w3.org/2000/svg" xmlns:xlink="http://www.w3.org/1999/xlink" xml:space="preserve" xmlns:serif="http://www.serif.com/" style="fill-rule:evenodd;clip-rule:evenodd;stroke-linecap:round;stroke-linejoin:round;stroke-miterlimit:1.5;">
    <g transform="matrix(1,0,0,1,-2171.73,-922.12)">
        <g>
            <g transform="matrix(1.76316,0,0,1.74955,1824.99,-1106.36)">
                <path d="M204.458,1310.73L222.244,1253.35L241.853,1237.16L266.937,1205.77L327.087,1191.18L354.219,1177.74L399.011,1170.71L451.483,1185.17L468.888,1193.1L516.369,1198.35L549.647,1225.1L563.068,1247.24L598.171,1272.46L608.237,1289.19L607.979,1369.71L571.844,1407.75L516.868,1450.89L464.86,1483.67L433.887,1511.7L415.579,1508.44L378.911,1448.57L372.2,1436.69L306.384,1429.46L234.373,1388.68L210.4,1371.13L204.458,1310.73Z" style="fill:white;"/>
            </g>
            <g transform="matrix(1.74955,0,0,1.74955,1833.77,-1106.36)">
                <g transform="matrix(0.49352,0,0,0.49352,-815.349,600.512)">
                    <g transform="matrix(0.709557,0,0,0.709557,1559.68,228.343)">
                        <path d="M1200.86,2058.41C1200.86,2058.41 1334.76,2059.12 1377.27,2040.7C1419.78,2022.28 1650.74,2066.2 1650.74,2066.2L1663.49,2067.62" style="fill:none;stroke:rgb(55,53,47);stroke-width:64.47px;"/>
                    </g>
                    <g transform="matrix(0.709557,0,0,0.709557,1559.68,228.343)">
                        <path d="M880.086,1977.33C880.086,1977.33 937.051,2038.2 1039.59,2049.59C1142.12,2060.98 1194.7,2060.11 1194.7,2060.11C1194.7,2060.11 1232.39,2170.53 1259.56,2200.33C1286.72,2230.12 1297.24,2278.6 1341.94,2280.22C1386.63,2281.83 1427.94,2207.34 1427.94,2207.34C1427.94,2207.34 1521.59,2163.52 1537.37,2135.47C1553.14,2107.43 1635.65,2095.27 1635.65,2095.27L1662.69,2075.88C1662.69,2075.88 1738.16,2033.18 1753.94,1984.69" style="fill:none;stroke:rgb(55,53,47);stroke-width:64.47px;"/>
                    </g>
                    <g transform="matrix(0.709557,0,0,0.633757,1559.68,350.447)">
                        <path d="M731.09,1617.86C731.09,1617.86 739.84,1546.25 763.667,1523.38C787.495,1500.51 813.228,1491.93 813.228,1491.93C813.228,1491.93 812.275,1403.29 956.193,1364.21C1100.11,1325.14 1074.38,1344.2 1074.38,1344.2C1074.38,1344.2 1108.42,1254.99 1271.96,1272.33C1435.51,1289.67 1439.29,1332.07 1439.29,1332.07C1439.29,1332.07 1510.46,1307.08 1624.79,1364.63C1739.12,1422.17 1731.55,1513.03 1731.55,1513.03C1731.55,1513.03 1780.23,1507.94 1798.01,1546.42C1815.8,1584.9 1820,1604.95 1820,1604.95" style="fill:none;stroke:rgb(55,53,47);stroke-width:68px;"/>
                    </g>
                    <path d="M2078.43,1375.78C2078.43,1375.78 2063.16,1426.47 2067.02,1448.04C2070.87,1469.61 2078.43,1488.87 2078.43,1488.87C2078.43,1488.87 2065.28,1566.63 2104.93,1582.86C2144.59,1599.08 2184.16,1631.37 2184.16,1631.37" style="fill:none;stroke:rgb(55,53,47);stroke-width:45.75px;"/>
                    <path d="M2851.08,1361.55C2851.08,1361.55 2889.82,1377.85 2886.56,1426.78C2883.3,1475.7 2924.87,1582.15 2804.2,1635.67" style="fill:none;stroke:rgb(55,53,47);stroke-width:45.75px;"/>
                </g>
                <g transform="matrix(1.18481,0,0,1.18481,-191.395,-157.941)">
                    <g transform="matrix(170.693,0,0,170.693,390.622,1301.68)">
                        <path d="M0.066,-0L0.066,-0.728L0.355,-0.728C0.408,-0.728 0.452,-0.719 0.488,-0.703C0.524,-0.687 0.55,-0.665 0.568,-0.637C0.586,-0.609 0.595,-0.577 0.595,-0.541C0.595,-0.512 0.589,-0.487 0.578,-0.466C0.566,-0.444 0.551,-0.427 0.531,-0.413C0.511,-0.4 0.489,-0.39 0.464,-0.384L0.464,-0.377C0.491,-0.376 0.517,-0.368 0.541,-0.354C0.565,-0.339 0.585,-0.319 0.6,-0.293C0.615,-0.267 0.623,-0.236 0.623,-0.2C0.623,-0.162 0.614,-0.128 0.595,-0.098C0.576,-0.067 0.548,-0.044 0.511,-0.026C0.474,-0.009 0.428,-0 0.373,-0L0.066,-0ZM0.215,-0.123L0.344,-0.123C0.387,-0.123 0.419,-0.131 0.439,-0.148C0.46,-0.165 0.47,-0.187 0.47,-0.215C0.47,-0.235 0.465,-0.253 0.455,-0.269C0.445,-0.285 0.431,-0.297 0.412,-0.307C0.394,-0.316 0.373,-0.32 0.347,-0.32L0.215,-0.32L0.215,-0.123ZM0.215,-0.422L0.332,-0.422C0.354,-0.422 0.373,-0.426 0.39,-0.433C0.406,-0.441 0.42,-0.452 0.429,-0.466C0.439,-0.48 0.444,-0.497 0.444,-0.517C0.444,-0.543 0.435,-0.565 0.416,-0.581C0.397,-0.598 0.37,-0.606 0.335,-0.606L0.215,-0.606L0.215,-0.422Z" style="fill:rgb(55,53,47);fill-rule:nonzero;"/>
                    </g>
                    <g transform="matrix(170.693,0,0,170.693,503.555,1301.68)">
                        <path d="M0.315,-0L0.139,-0L0.139,-0.082L0.309,-0.082C0.368,-0.082 0.417,-0.093 0.456,-0.116C0.495,-0.139 0.524,-0.171 0.543,-0.213C0.563,-0.256 0.572,-0.306 0.572,-0.365C0.572,-0.424 0.563,-0.474 0.544,-0.515C0.525,-0.557 0.496,-0.589 0.459,-0.612C0.421,-0.634 0.374,-0.646 0.318,-0.646L0.135,-0.646L0.135,-0.728L0.324,-0.728C0.395,-0.728 0.456,-0.713 0.506,-0.684C0.556,-0.655 0.595,-0.614 0.622,-0.559C0.649,-0.505 0.662,-0.44 0.662,-0.365C0.662,-0.289 0.649,-0.224 0.622,-0.17C0.595,-0.115 0.555,-0.073 0.503,-0.044C0.452,-0.015 0.389,-0 0.315,-0ZM0.181,-0.728L0.181,-0L0.088,-0L0.088,-0.728L0.181,-0.728Z" style="fill:rgb(55,53,47);fill-rule:nonzero;"/>
                    </g>
                </g>
            </g>
        </g>
    </g>
</svg>
